# xmcd CD database file
#
# Track frame offsets:
#	150
#	17115
#	31715
#	51327
#	67455
#	85247
#	102390
#	124062
#	144912
#	161170
#	183685
#	203185
#	219327
#	230357
#	255550
#	272855
#	286207
#	306162
#	323490
#
# Disc length: 4574 seconds
#
# Revision: 0
# Processed by: cddbd v1.4PL0 Copyright (c) Steve Scherf et al.
# Submitted via: CDex 1.40Release
#
DISCID=1911dc13
DTITLE=John Lee Hooker - Live at Sugar Hill vol. 2
DYEAR=1962
DGENRE=Blues
TTITLE0=You torture my soul
TTITLE1=Bottle up and go
TTITLE2=Come back baby (let's talk it over)
TTITLE3=Catfish blues
TTITLE4=What's the matter baby
TTITLE5=Jelly Jelly
TTITLE6=The things that I used to do
TTITLE7=Taxi driver
TTITLE8=I love no one but my baby
TTITLE9=Crawlin' king snake
TTITLE10=I can't hold on
TTITLE11=How can you do it
TTITLE12=Let's get it
TTITLE13=Sinner's prayer
TTITLE14=That's all right
TTITLE15=What'd I say
TTITLE16=You don't miss your water
TTITLE17=Third degree
TTITLE18=Five long years
EXTD=YEAR: 1962 ID3G: 0
EXTT0=
EXTT1=
EXTT2=
EXTT3=
EXTT4=
EXTT5=
EXTT6=
EXTT7=
EXTT8=
EXTT9=
EXTT10=
EXTT11=
EXTT12=
EXTT13=
EXTT14=
EXTT15=
EXTT16=
EXTT17=
EXTT18=
PLAYORDER=
